<svg width="1965" height="506" viewBox="0 0 1965 506" fill="none" xmlns="http://www.w3.org/2000/svg">
<g clip-path="url(#clip0_347_60)">
<path d="M61.9637 444.119L112.865 501.063H94.6689L46.573 447.931V500.983H31.543V390.465H46.4126V440.347L93.226 390.505H111.462L61.9637 444.119Z" fill="white"/>
<path d="M345.609 501.626H329.577L320.64 476.625H270.259L261.121 501.426H245.089L287.293 390.867H304.046L345.609 501.626ZM295.55 408.404L275.51 462.82H315.59L295.55 408.404Z" fill="white"/>
<path d="M526.37 501.825H509.577L469.817 391.227H485.849L517.913 483.526L550.378 391.227H566.41L526.37 501.825Z" fill="white"/>
<path d="M790.577 502.307H774.745L765.527 477.546H715.146L706.008 502.307H690.217L732.261 391.668H749.014L790.577 502.307ZM740.517 409.325L720.477 463.782H760.557L740.517 409.325Z" fill="white"/>
<path d="M995.746 445.444C1000.73 447.777 1004.98 451.443 1008.01 456.038C1011.01 460.638 1012.56 466.035 1012.46 471.529C1012.54 475.693 1011.74 479.828 1010.11 483.661C1008.48 487.493 1006.06 490.935 1003 493.761C999.942 496.705 996.33 499.012 992.374 500.548C988.418 502.084 984.197 502.819 979.955 502.71H931.859V392.191H976.588C980.683 392.078 984.76 392.79 988.574 394.286C992.389 395.782 995.864 398.031 998.792 400.9C1001.74 403.628 1004.08 406.954 1005.65 410.655C1007.22 414.357 1007.98 418.349 1007.89 422.369C1008.04 426.94 1007 431.472 1004.87 435.518C1002.74 439.565 999.598 442.985 995.746 445.444ZM976.628 405.956H946.729V439.746H976.588C978.822 439.814 981.046 439.414 983.117 438.571C985.188 437.727 987.06 436.46 988.612 434.85C990.179 433.268 991.412 431.388 992.238 429.319C993.065 427.251 993.467 425.038 993.422 422.811C993.457 420.604 993.037 418.414 992.189 416.377C991.341 414.34 990.082 412.5 988.492 410.972C986.996 409.32 985.162 408.009 983.115 407.13C981.068 406.25 978.855 405.822 976.628 405.876V405.956ZM946.608 488.945H979.995C982.342 489 984.675 488.568 986.848 487.677C989.02 486.787 990.986 485.456 992.62 483.768C994.291 482.09 995.607 480.091 996.489 477.891C997.37 475.691 997.799 473.336 997.75 470.967C997.802 468.61 997.362 466.268 996.458 464.091C995.554 461.915 994.206 459.951 992.5 458.326C990.911 456.631 988.984 455.29 986.843 454.391C984.702 453.492 982.396 453.055 980.075 453.109H946.648L946.608 488.945Z" fill="white"/>
<path d="M1247.37 503.151H1231.34L1222.44 478.311H1172.1L1162.96 503.071H1147.13L1189.01 392.633H1205.81L1247.37 503.151ZM1197.35 410.049L1177.31 464.466H1217.39L1197.35 410.049Z" fill="white"/>
<path d="M1458.07 475.421V392.994H1472.9V503.513H1460.87L1403.48 420.845V503.432H1388.61L1388.81 392.914H1400.83L1458.07 475.421Z" fill="white"/>
<path d="M1676.78 449.137H1732.9V455.758C1733.08 462.504 1731.84 469.212 1729.24 475.438C1726.64 481.665 1722.75 487.267 1717.83 491.875C1707.81 501.346 1694.53 506.068 1677.99 506.041C1670.17 506.263 1662.39 504.898 1655.12 502.029C1647.85 499.16 1641.23 494.846 1635.66 489.347C1625.01 478.507 1619.03 463.906 1619.03 448.695C1619.03 433.484 1625.01 418.884 1635.66 408.044C1644.92 399.212 1656.74 393.563 1669.42 391.917C1682.1 390.272 1694.97 392.716 1706.16 398.894C1714.49 403.337 1721.43 410.005 1726.2 418.156L1713.38 425.58C1710.07 419.429 1705.02 414.39 1698.87 411.093C1692.38 407.458 1685.06 405.564 1677.63 405.596C1669.06 405.492 1660.65 407.932 1653.47 412.609C1646.28 417.285 1640.64 423.987 1637.26 431.87C1633.88 439.752 1632.9 448.462 1634.46 456.899C1636.01 465.335 1640.03 473.122 1646 479.274C1650.25 483.386 1655.27 486.602 1660.78 488.732C1666.29 490.862 1672.17 491.863 1678.07 491.675C1687.69 492.07 1697.16 489.246 1705 483.649C1711.91 478.53 1716.54 470.912 1717.91 462.42H1676.74L1676.78 449.137Z" fill="white"/>
<path d="M1963.92 504.433H1947.89L1938.83 479.633H1888.45L1879.75 504.313H1863.72L1905.64 393.875H1922.4L1963.92 504.433ZM1913.86 411.372L1893.82 465.788H1933.9L1913.86 411.372Z" fill="white"/>
<path d="M1264.2 281.512L988.732 5.73794H1017.55L1264.2 252.658L1511.05 5.45703H1539.87L1264.2 281.512Z" fill="white"/>
<path d="M1264.2 204.422L1065.73 5.45703H1094.54L1264.2 175.568L1434.06 5.45703H1462.88L1264.2 204.422Z" fill="white"/>
<path d="M1264.2 135.037L1134.86 5.73794L1163.4 5.45703L1264.2 106.183L1364.56 5.45703H1393.34L1264.2 135.037Z" fill="white"/>
<path d="M1081.84 276.777L836.87 29.1344L591.901 276.777H563.083L836.87 0L1110.66 276.777H1081.84Z" fill="white"/>
<path d="M1004.8 276.776L836.87 106.986L669.175 276.495L640.117 276.776L836.87 77.8516L1033.62 276.776H1004.8Z" fill="white"/>
<path d="M738.032 276.976L709.375 276.776L836.869 147.918L964.324 276.776H935.506L836.869 177.052L738.032 276.976Z" fill="white"/>
<path d="M1936.18 276.777L1691.21 29.1344L1446.29 276.777H1417.47L1691.21 0L1965 276.777H1936.18Z" fill="white"/>
<path d="M1859.19 276.776L1691.21 106.986L1523.56 276.495L1494.46 276.776L1691.21 77.8516L1888.01 276.776H1859.19Z" fill="white"/>
<path d="M1592.38 276.976L1563.76 276.776L1691.21 147.918L1818.71 276.776H1789.89L1691.21 177.052L1592.38 276.976Z" fill="white"/>
<path d="M511.06 276.977L234.749 140.615L511.1 5.45703H557.512L281.001 140.695L555.508 276.174L511.06 276.977Z" fill="white"/>
<path d="M394.507 276.977L118.196 140.615L394.547 5.45703H440.92L164.448 140.695L440.92 277.138L394.507 276.977Z" fill="white"/>
<path d="M276.311 276.977L0 140.615L276.351 5.45703H322.764L46.2523 140.695L322.764 277.138L276.311 276.977Z" fill="white"/>
</g>
<defs>
<clipPath id="clip0_347_60">
<rect width="1965" height="506" fill="white"/>
</clipPath>
</defs>
</svg>
